<svg width="48" height="48" viewBox="0 0 48 48" fill="none" xmlns="http://www.w3.org/2000/svg">
<g clip-path="url(#clip0_9_225)">
<g filter="url(#filter0_i_9_225)">
<path d="M24 0C43.2 0 48 14 48 20C46 16 38.4 6 24 6C10.3742 6 6.41834 11.3721 6.03234 19.9984C5.99531 20.826 6.66848 21.5 7.4969 21.5H24H48V30C48 36 43.2 48 24 48C4.8 48 0 34 0 28C2 32 9.6 42 24 42C37.6258 42 41.5817 36.6279 41.9677 28.0016C42.0047 27.174 41.3315 26.5 40.5031 26.5H24H0V18C0 12 4.8 0 24 0Z" fill="#4D22A7"/>
</g>
</g>
<defs>
<filter id="filter0_i_9_225" x="0" y="0" width="48" height="48" filterUnits="userSpaceOnUse" color-interpolation-filters="sRGB">
<feFlood flood-opacity="0" result="BackgroundImageFix"/>
<feBlend mode="normal" in="SourceGraphic" in2="BackgroundImageFix" result="shape"/>
<feColorMatrix in="SourceAlpha" type="matrix" values="0 0 0 0 0 0 0 0 0 0 0 0 0 0 0 0 0 0 127 0" result="hardAlpha"/>
<feOffset/>
<feGaussianBlur stdDeviation="2"/>
<feComposite in2="hardAlpha" operator="arithmetic" k2="-1" k3="1"/>
<feColorMatrix type="matrix" values="0 0 0 0 0.462745 0 0 0 0 0.211765 0 0 0 0 0.784314 0 0 0 1 0"/>
<feBlend mode="normal" in2="shape" result="effect1_innerShadow_9_225"/>
</filter>
<clipPath id="clip0_9_225">
<rect width="48" height="48" fill="white"/>
</clipPath>
</defs>
</svg>
