<svg width="48" height="48" viewBox="0 0 48 48" fill="none" xmlns="http://www.w3.org/2000/svg">
<g clip-path="url(#clip0_14_259)">
<g filter="url(#filter0_i_14_259)">
<path d="M24 8C36.8 8 40 17.3333 40 21.3333C38.6667 18.6667 33.6 12 24 12C15.1821 12 12.4388 15.3748 12.0504 20.8329C11.9916 21.6592 12.6691 22.3333 13.4975 22.3333H24H40V28C40 32 36.8 40 24 40C11.2 40 8 30.6667 8 26.6667C9.33333 29.3333 14.4 36 24 36C32.8179 36 35.5612 32.6252 35.9496 27.1671C36.0084 26.3408 35.3309 25.6667 34.5025 25.6667H24H8V20C8 16 11.2 8 24 8Z" fill="white"/>
</g>
<g filter="url(#filter1_i_14_259)">
<circle cx="24" cy="24" r="23.5" stroke="white"/>
</g>
</g>
<defs>
<filter id="filter0_i_14_259" x="8" y="8" width="32" height="32" filterUnits="userSpaceOnUse" color-interpolation-filters="sRGB">
<feFlood flood-opacity="0" result="BackgroundImageFix"/>
<feBlend mode="normal" in="SourceGraphic" in2="BackgroundImageFix" result="shape"/>
<feColorMatrix in="SourceAlpha" type="matrix" values="0 0 0 0 0 0 0 0 0 0 0 0 0 0 0 0 0 0 127 0" result="hardAlpha"/>
<feOffset/>
<feGaussianBlur stdDeviation="2"/>
<feComposite in2="hardAlpha" operator="arithmetic" k2="-1" k3="1"/>
<feColorMatrix type="matrix" values="0 0 0 0 0.8 0 0 0 0 0.8 0 0 0 0 0.8 0 0 0 1 0"/>
<feBlend mode="normal" in2="shape" result="effect1_innerShadow_14_259"/>
</filter>
<filter id="filter1_i_14_259" x="0" y="0" width="48" height="48" filterUnits="userSpaceOnUse" color-interpolation-filters="sRGB">
<feFlood flood-opacity="0" result="BackgroundImageFix"/>
<feBlend mode="normal" in="SourceGraphic" in2="BackgroundImageFix" result="shape"/>
<feColorMatrix in="SourceAlpha" type="matrix" values="0 0 0 0 0 0 0 0 0 0 0 0 0 0 0 0 0 0 127 0" result="hardAlpha"/>
<feOffset/>
<feGaussianBlur stdDeviation="2"/>
<feComposite in2="hardAlpha" operator="arithmetic" k2="-1" k3="1"/>
<feColorMatrix type="matrix" values="0 0 0 0 0.8 0 0 0 0 0.8 0 0 0 0 0.8 0 0 0 1 0"/>
<feBlend mode="normal" in2="shape" result="effect1_innerShadow_14_259"/>
</filter>
<clipPath id="clip0_14_259">
<rect width="48" height="48" fill="white"/>
</clipPath>
</defs>
</svg>
