<svg width="48" height="48" viewBox="0 0 48 48" fill="none" xmlns="http://www.w3.org/2000/svg">
<path d="M24 13.3333C32.5333 13.3333 34.6667 19.5556 34.6667 22.2222C33.7778 20.4445 30.4 16 24 16C18.1214 16 16.2926 18.2499 16.0336 21.8886C15.9944 22.4395 16.4461 22.8889 16.9984 22.8889H24H34.6667V26.6667C34.6667 29.3333 32.5333 34.6667 24 34.6667C15.4667 34.6667 13.3333 28.4445 13.3333 25.7778C14.2222 27.5556 17.6 32 24 32C29.8786 32 31.7075 29.7501 31.9664 26.1114C32.0056 25.5605 31.5539 25.1111 31.0017 25.1111H24H13.3333V21.3333C13.3333 18.6667 15.4667 13.3333 24 13.3333Z" fill="url(#paint0_linear_15_441)"/>
<circle cx="24" cy="24" r="15.6667" stroke="url(#paint1_linear_15_441)" stroke-width="0.666667"/>
<defs>
<linearGradient id="paint0_linear_15_441" x1="24" y1="13.3333" x2="24" y2="34.6667" gradientUnits="userSpaceOnUse">
<stop/>
<stop offset="1" stop-color="#333333"/>
</linearGradient>
<linearGradient id="paint1_linear_15_441" x1="24" y1="8" x2="24" y2="40" gradientUnits="userSpaceOnUse">
<stop/>
<stop offset="1" stop-color="#333333"/>
</linearGradient>
</defs>
</svg>
