<svg width="48" height="48" viewBox="0 0 48 48" fill="none" xmlns="http://www.w3.org/2000/svg">
<g filter="url(#filter0_i_15_376)">
<path d="M24 13.3333C32.5333 13.3333 34.6666 19.5555 34.6666 22.2222C33.7778 20.4444 30.4 16 24 16C18.1214 16 16.2925 18.2499 16.0336 21.8886C15.9944 22.4394 16.446 22.8889 16.9983 22.8889H24H34.6666V26.6666C34.6666 29.3333 32.5333 34.6666 24 34.6666C15.4666 34.6666 13.3333 28.4444 13.3333 25.7778C14.2222 27.5555 17.6 32 24 32C29.8786 32 31.7074 29.7501 31.9664 26.1114C32.0056 25.5605 31.5539 25.1111 31.0016 25.1111H24H13.3333V21.3333C13.3333 18.6666 15.4666 13.3333 24 13.3333Z" fill="#117474"/>
</g>
<g filter="url(#filter1_i_15_376)">
<circle cx="24" cy="24" r="15.6667" stroke="#117474" stroke-width="0.666667"/>
</g>
<defs>
<filter id="filter0_i_15_376" x="13.3333" y="13.3333" width="21.3333" height="21.3333" filterUnits="userSpaceOnUse" color-interpolation-filters="sRGB">
<feFlood flood-opacity="0" result="BackgroundImageFix"/>
<feBlend mode="normal" in="SourceGraphic" in2="BackgroundImageFix" result="shape"/>
<feColorMatrix in="SourceAlpha" type="matrix" values="0 0 0 0 0 0 0 0 0 0 0 0 0 0 0 0 0 0 127 0" result="hardAlpha"/>
<feOffset/>
<feGaussianBlur stdDeviation="1.33333"/>
<feComposite in2="hardAlpha" operator="arithmetic" k2="-1" k3="1"/>
<feColorMatrix type="matrix" values="0 0 0 0 0.0980392 0 0 0 0 0.576471 0 0 0 0 0.6 0 0 0 1 0"/>
<feBlend mode="normal" in2="shape" result="effect1_innerShadow_15_376"/>
</filter>
<filter id="filter1_i_15_376" x="8" y="8" width="32" height="32" filterUnits="userSpaceOnUse" color-interpolation-filters="sRGB">
<feFlood flood-opacity="0" result="BackgroundImageFix"/>
<feBlend mode="normal" in="SourceGraphic" in2="BackgroundImageFix" result="shape"/>
<feColorMatrix in="SourceAlpha" type="matrix" values="0 0 0 0 0 0 0 0 0 0 0 0 0 0 0 0 0 0 127 0" result="hardAlpha"/>
<feOffset/>
<feGaussianBlur stdDeviation="1.33333"/>
<feComposite in2="hardAlpha" operator="arithmetic" k2="-1" k3="1"/>
<feColorMatrix type="matrix" values="0 0 0 0 0.0980392 0 0 0 0 0.576471 0 0 0 0 0.6 0 0 0 1 0"/>
<feBlend mode="normal" in2="shape" result="effect1_innerShadow_15_376"/>
</filter>
</defs>
</svg>
